<?xml version="1.0" encoding="utf-8"?>
<!-- Generator: Adobe Illustrator 24.0.1, SVG Export Plug-In . SVG Version: 6.00 Build 0)  -->
<svg version="1.1" id="Слой_1" xmlns="http://www.w3.org/2000/svg" xmlns:xlink="http://www.w3.org/1999/xlink" x="0px" y="0px"
	 viewBox="0 0 98 29" style="enable-background:new 0 0 98 29;" xml:space="preserve">
<style type="text/css">
	.st0{fill:#2F80ED;}
</style>
<path class="st0" d="M0,4c0-2.2,1.8-4,4-4h6c2.2,0,4,1.8,4,4v21c0,2.2-1.8,4-4,4H4c-2.2,0-4-1.8-4-4V4z"/>
<path class="st0" d="M18,4c0-2.2,1.8-4,4-4h6c2.2,0,4,1.8,4,4v10c0,2.2-1.8,4-4,4h-6c-2.2,0-4-1.8-4-4V4z"/>
<g>
	<path d="M46,18.4c0,0.2,0,0.5-0.1,0.9c0,0.4-0.1,0.7-0.1,0.9s0,0.3-0.1,0.4c0,0.1-0.1,0.1-0.3,0.2c-0.8,0.5-1.8,0.7-2.8,0.7
		c-1.9,0-2.8-0.7-2.8-2.2c0-0.4,0-1.1,0-1.9c0-0.9,0-1.5,0-1.9c0-0.3-0.2-0.4-0.5-0.4c0,0-0.1,0-0.1,0c-0.1,0-0.1,0-0.1,0
		c-0.2,0-0.4-0.1-0.4-0.3c0-0.1,0-0.3,0-0.5s0-0.4,0-0.5c0-0.1,0-0.3,0-0.6s0-0.5,0-0.6c0-0.1,0.2-0.2,0.6-0.2
		c0.2,0,0.4-0.1,0.4-0.2c0-0.2,0.1-0.6,0-1.2c0-0.8,0-1.2,0-1.2c0-0.8,0.1-1.1,0.2-1.1c0.2,0,0.4,0,0.8,0.1c0.4,0.1,0.6,0.1,0.8,0.1
		c0.3,0,0.8,0.1,1.5,0.2c0.2,0,0.2,0.1,0.2,0.2c0,0.3,0,0.7-0.1,1.2s-0.1,0.9-0.1,1.2c0,0.3,0.1,0.5,0.3,0.5c0.2,0,0.6,0,1,0
		s0.8,0,1,0c0.1,0,0.2,0,0.2,0.1c0,0.1,0,0.4,0,0.7s0,0.5,0,0.7c0,0.2,0,0.4,0,0.7s0,0.5,0,0.7c0,0.1-0.1,0.2-0.3,0.2
		c-0.1,0-0.3,0-0.7,0s-0.5,0-0.7,0h-0.7c-0.1,0-0.1,0.1-0.1,0.4c0,0.2,0,0.4,0,0.7c0,0.3,0,0.5,0,0.7c0,0.5,0.1,0.9,0.2,1.1
		c0.2,0.3,0.5,0.4,1,0.4c0.2,0,0.4,0,0.7-0.1c0.3-0.1,0.5-0.1,0.6-0.1C45.9,18.2,46,18.3,46,18.4z"/>
	<path class="st0" d="M58.7,21.2c0,0-0.1,0.1-0.2,0.1c-0.2,0-0.9,0.1-1.9,0.1c-0.9,0-1.4,0-1.7-0.1c-0.1,0-0.2,0-0.2,0
		c0,0-0.1-0.1-0.1-0.2c-0.1-0.3-0.2-0.6-0.4-1.1c-0.3-0.7-0.7-1.6-1.2-2.9c-0.1-0.3-0.4-0.4-0.8-0.4c0.2,0-0.1,0-1,0
		c-0.1,0-0.1,0.2-0.1,0.5c0,0.4,0,1.1,0.1,2s0.1,1.5,0.1,2c0,0.1,0,0.2-0.1,0.2c-0.1,0-0.2,0-0.3,0c-0.4,0-1,0-1.8,0
		c-0.9,0-1.5,0-1.7-0.1s-0.3-0.1-0.3-0.3c0-0.7,0-1.8,0.1-3.2s0.1-2.5,0.1-3.3c0-2.8-0.1-4.9-0.2-6.4l0-0.1c0-0.1,0.1-0.2,0.3-0.2
		s1.2-0.1,3-0.1c1.2,0,2.2,0,2.9,0c1.5,0,2.7,0.3,3.6,1c1.1,0.8,1.6,1.8,1.6,3.3c0,1-0.1,1.7-0.4,2.3s-0.8,1.1-1.5,1.7
		c-0.1,0.1-0.2,0.2-0.2,0.3c0,0,0.4,0.8,1.2,2.5S58.7,21,58.7,21.2z M54.6,12.4c0-0.8-0.3-1.3-0.8-1.7c-0.4-0.2-1-0.4-1.9-0.4
		c-0.6,0-0.9,0.1-1,0.3c0,0.2-0.1,0.9-0.1,1.9c0,0.1,0,0.4,0,0.7s0,0.5,0,0.7c0,0,0.1,0.1,0.3,0.1c0.4,0.1,0.8,0.1,1.3,0.1
		C53.9,14.1,54.6,13.6,54.6,12.4z"/>
	<path class="st0" d="M71.5,16.5c0,1.7-0.2,2.8-0.6,3.4c-0.7,1.1-2.5,1.7-5.5,1.7c-1.3,0-2.3-0.1-3-0.3c-1.1-0.3-1.9-0.9-2.2-1.9
		c-0.2-0.4-0.3-1.3-0.3-2.4c0-0.3,0-0.7,0-1.2s0-0.9,0-1.2c0-0.8,0-1.9-0.1-3.4s-0.1-2.6-0.1-3.4c0-0.2,0.1-0.2,0.2-0.2
		c0.4,0,1,0,1.8,0s1.4,0,1.8,0c0.2,0,0.2,0.1,0.2,0.2c0,0.9,0,2.1-0.1,3.9s-0.1,3-0.1,3.9c0,1,0.1,1.7,0.3,2.1
		c0.3,0.5,0.9,0.7,1.8,0.7c1.3,0,2-0.6,2-1.9c0-0.9,0-2.4-0.1-4.2S67.6,8.9,67.6,8c0-0.2,0.1-0.3,0.2-0.3c0.4,0,1,0,1.7,0
		s1.4,0,1.7,0c0.2,0,0.3,0.1,0.3,0.2c0,0.7,0,1.9-0.1,3.4s-0.1,2.6-0.1,3.4c0,0.2,0,0.5,0,0.9S71.5,16.3,71.5,16.5z"/>
	<path d="M76.9,15.4c0,1.8,0,3.1,0,4.1c0,0.2,0,0.4,0,0.8c0,0.3,0,0.6,0,0.8c0,0.1-0.1,0.2-0.2,0.2c-0.3,0.1-0.8,0.1-1.6,0.1
		c-0.8,0-1.3,0-1.5-0.1c-0.1,0-0.2-0.1-0.2-0.3c0,0,0-0.2,0-0.4c0-0.6,0-1.4,0-2.6c0-1.2,0-2,0-2.6c0-2.7,0-4,0-3.7
		c0-1.4-0.1-2.7-0.2-3.7c0-0.1,0-0.1,0-0.2c0-0.1,0.1-0.2,0.3-0.2h3.5c0.2,0,0.2,0.1,0.2,0.2l0,0.2C77,10.8,76.9,13.3,76.9,15.4z"/>
	<path d="M82.2,15.4c0,1.8,0,3.1,0,4.1c0,0.2,0,0.4,0,0.8c0,0.3,0,0.6,0,0.8c0,0.1-0.1,0.2-0.2,0.2c-0.3,0.1-0.8,0.1-1.6,0.1
		c-0.8,0-1.3,0-1.5-0.1c-0.1,0-0.2-0.1-0.2-0.3c0,0,0-0.2,0-0.4c0-0.6,0-1.4,0-2.6c0-1.2,0-2,0-2.6c0-2.7,0-4,0-3.7
		c0-1.4-0.1-2.7-0.2-3.7c0-0.1,0-0.1,0-0.2c0-0.1,0.1-0.2,0.3-0.2h3.5c0.2,0,0.2,0.1,0.2,0.2l0,0.2C82.3,10.8,82.2,13.3,82.2,15.4z"
		/>
	<path d="M93.4,16.5c0,1.5-0.5,2.7-1.4,3.6c-0.9,0.9-2.1,1.4-3.6,1.4c-1.4,0-2.6-0.5-3.5-1.4c-0.9-0.9-1.4-2.1-1.4-3.5
		c0-1.5,0.4-2.7,1.3-3.7s2.1-1.4,3.6-1.4c1.5,0,2.7,0.5,3.6,1.4S93.4,15,93.4,16.5z M90.2,16.5c0-0.5-0.2-1-0.5-1.4
		c-0.3-0.4-0.7-0.6-1.2-0.6c-0.5,0-0.9,0.2-1.3,0.6c-0.3,0.4-0.5,0.8-0.5,1.3c0,0.5,0.2,1,0.5,1.4c0.3,0.4,0.8,0.6,1.3,0.6
		c0.5,0,0.9-0.2,1.3-0.6C90,17.5,90.2,17,90.2,16.5z"/>
</g>
</svg>
